<svg width="68" height="68" viewBox="0 0 68 68" fill="none" xmlns="http://www.w3.org/2000/svg">
<g clip-path="url(#clip0)">
<path d="M34.5393 0.00619463C41.2787 0.114631 47.8338 2.22492 53.3714 6.06887C58.9089 9.91282 63.179 15.3169 65.639 21.5942C68.0989 27.8716 68.6375 34.7388 67.1865 41.3231C65.7355 47.9074 62.3603 53.9115 57.4898 58.5724C52.6194 63.2333 46.4736 66.3405 39.8335 67.4991C33.1935 68.6577 26.359 67.8154 20.1987 65.0792C14.0384 62.3431 8.83034 57.8366 5.23649 52.1325C1.64264 46.4285 -0.174747 39.7844 0.0152868 33.0447C0.272145 24.1034 4.03908 15.6231 10.5006 9.43958C16.9621 3.25611 25.5982 -0.132917 34.5393 0.00619463Z" fill="white"/>
<path d="M65.9679 33.9985C65.9984 51.3177 52.1455 65.3517 35.2522 65.949C31.0424 66.1129 26.8417 65.4428 22.8917 63.9772C18.9416 62.5117 15.3202 60.2795 12.2354 57.4091C9.15074 54.5388 6.66364 51.0868 4.91715 47.2516C3.17066 43.4165 2.19923 39.2738 2.0587 35.0619C1.91817 30.8499 2.61132 26.6517 4.09829 22.7086C5.58527 18.7655 7.83673 15.1553 10.7233 12.0856C13.6098 9.01588 17.0744 6.54717 20.918 4.8214C24.7615 3.09564 28.9082 2.14688 33.1196 2.02964C51.2894 1.57251 66.0045 16.1794 65.9679 33.9985Z" fill="#C4C4C4"/>
<path d="M39.6819 27.6901C39.6819 30.9449 38.5394 33.8096 36.6353 36.3969C35.9044 37.3767 35.0833 38.2858 34.1828 39.1123C34.0548 39.2312 33.9634 39.3409 33.7715 39.158C31.2703 36.7504 29.3448 33.9772 28.5466 30.5548C27.7484 27.1324 28.3608 23.9111 30.0699 20.8727C31.0592 19.1703 32.3023 17.6288 33.7563 16.3014C33.8995 16.1673 33.9939 16.152 34.1462 16.3014C35.8856 17.8644 37.3096 19.7461 38.3414 21.8449C39.2248 23.6667 39.6831 25.6653 39.6819 27.6901V27.6901Z" fill="white"/>
<path d="M37.6894 48.3585C37.272 48.3585 36.8516 48.3585 36.4342 48.3585C36.2545 48.3585 36.2027 48.2915 36.1996 48.1208C36.1509 44.4333 36.809 40.9378 38.9416 37.8414C40.7056 35.2846 43.1337 33.6328 46.0767 32.7094C48.1173 32.0929 50.2475 31.8261 52.3771 31.9201C52.572 31.9201 52.6817 31.9475 52.6817 32.1913C52.7792 35.1992 52.3435 38.1035 50.9482 40.8067C49.3977 43.8483 46.7371 46.1768 43.5176 47.3102C41.6527 48.0039 39.679 48.3589 37.6894 48.3585V48.3585Z" fill="white"/>
<path d="M17.2772 31.9261C19.5231 31.9662 21.7401 32.4401 23.8061 33.3219C26.7735 34.5955 29.1621 36.9262 30.5086 39.862C31.7273 42.4189 32.1264 45.1373 32.102 47.941C32.102 48.261 32.0197 48.3768 31.6663 48.3829C29.2061 48.4896 26.7502 48.0882 24.452 47.2035C22.6902 46.5333 21.0905 45.4972 19.7582 44.1634C18.426 42.8297 17.3914 41.2286 16.7228 39.4658C15.7875 37.1192 15.5407 34.672 15.6321 32.173C15.6321 32.0054 15.6778 31.917 15.8636 31.9353C15.9529 31.9399 16.0424 31.9399 16.1317 31.9353L17.2772 31.9261Z" fill="white"/>
</g>
<defs>
<clipPath id="clip0">
<rect width="68" height="68" fill="white"/>
</clipPath>
</defs>
</svg>
